<?xml version="1.0" encoding="UTF-8"?>
<svg width="30px" height="30px" viewBox="0 0 20 20" version="1.1" xmlns="http://www.w3.org/2000/svg" xmlns:xlink="http://www.w3.org/1999/xlink">
    <title>icon-sprite-menu@1x</title>
    <g id="MWeb-/-Empty-&amp;-Error-States" stroke="none" stroke-width="1" fill="none" fill-rule="evenodd">
        <g id="[MVP][Full-W]Icons" transform="translate(-298.000000, -147.000000)">
            <g id="icon-sprite-menu" transform="translate(298.000000, 147.000000)">
               
                <g id="Channels-/-Filled" transform="translate(-1.000000, -2.000000)">
                    <polygon id="Path" points="0 0 24 0 24 24 0 24"></polygon>
                    <path d="M15.63046,7 C16.520983,7 17.2456271,7.72454736 17.2456271,8.61507031 L17.2456271,15.4929021 C17.2456271,16.383425 16.520983,17.1079725 15.63046,17.1079725 L8.36951093,17.1079725 C7.47898797,17.1079725 6.75444062,16.383425 6.75444062,15.4929021 L6.75444062,8.61507031 C6.75444062,7.72454736 7.47898797,7 8.36951093,7 L15.63046,7 Z M19.4196657,8.9289828 C19.740107,8.9289828 20,9.18877912 20,9.50931703 L20,14.5986553 C20,14.9190966 19.740107,15.1789896 19.4196657,15.1789896 C19.0992245,15.1789896 18.8393314,14.9190966 18.8393314,14.5986553 L18.8393314,9.50931703 C18.8393314,9.18877912 19.0992245,8.9289828 19.4196657,8.9289828 Z M4.58033429,8.9289828 C4.90077553,8.9289828 5.16066857,9.18877912 5.16066857,9.50931703 L5.16066857,14.5986553 C5.16066857,14.9190966 4.90077553,15.1789896 4.58033429,15.1789896 C4.25989304,15.1789896 4,14.9190966 4,14.5986553 L4,9.50931703 C4,9.18877912 4.25989304,8.9289828 4.58033429,8.9289828 Z" id="Combined-Shape" fill="aliceblue" fill-rule="nonzero"></path>
                </g>
                  </g>
        </g>
    </g>
</svg>