<?xml version="1.0" encoding="UTF-8"?>
<svg width="30px" height="30px" viewBox="0 0 20 20" version="1.1" xmlns="http://www.w3.org/2000/svg" xmlns:xlink="http://www.w3.org/1999/xlink">
    <title>icon-sprite-menu@1x</title>
    <g id="MWeb-/-Empty-&amp;-Error-States" stroke="none" stroke-width="1" fill="none" fill-rule="evenodd">
        <g id="[MVP][Full-W]Icons" transform="translate(-298.000000, -147.000000)">
            <g id="icon-sprite-menu" transform="translate(298.000000, 147.000000)">
                <g id="Genres-/-Filled" transform="translate(-1, -1)">
                    <rect id="Rectangle" x="0" y="0" width="24" height="24"></rect>
                    <g transform="translate(4.000000, 5.000000)" fill-rule="nonzero">
                        <path d="M12.2184809,4.4426484 C13.0789743,4.59142754 13.9614702,4.62732816 14.8435109,4.54429257 C15.1693623,4.513664 15.489728,4.64468114 15.700928,4.894464 C15.8819566,5.10864195 15.9633018,5.38750656 15.9295336,5.66185145 L15.9029851,5.79832686 L14.5458194,10.8632869 C14.2790701,11.8586305 13.6189399,12.6879502 12.7181301,13.1708008 L12.506048,13.2759954 L11.8080823,13.595264 C11.205568,13.8709211 10.5680366,14.0030354 9.93781943,14.0030354 C8.98085271,14.0030354 8.04035898,13.6983469 7.26304507,13.1282542 C8.07241134,12.9501848 8.83890609,12.6037839 9.50742259,12.1088976 L9.75341593,11.9163938 L10.3964685,11.3849215 L10.4327346,11.3550144 L10.4346225,11.3531266 L10.6417054,11.1686159 C10.7871614,11.0317027 10.9235243,10.8871199 11.0503847,10.7357377 L11.076544,10.819072 C11.1412754,11.0653806 11.3635383,11.2282149 11.6066469,11.2282149 C11.6529097,11.2281234 11.699904,11.2223634 11.746624,11.2100206 C12.0396526,11.1328549 12.2145554,10.8327863 12.1374811,10.5398491 C12.0542263,10.2236378 11.9167526,9.92965577 11.7355751,9.6684744 C12.0120622,9.08556377 12.1758214,8.44908579 12.2118367,7.79029731 L12.2194114,7.51269558 L12.2184809,4.4426484 Z M9.53453714,3.41060513e-13 C9.92731429,3.41060513e-13 10.3051886,0.118491429 10.6272914,0.342491429 C11.0901486,0.664228571 11.3851182,1.17229349 11.4394835,1.72738469 L11.4485943,1.91396571 L11.4485943,7.15757714 C11.4485943,8.43433448 10.9277196,9.63909323 10.0091431,10.5100462 L9.80626286,10.6914743 L9.80452571,10.6932114 L9.77115429,10.7207314 L9.17942857,11.2097829 C8.21083429,12.0105143 6.98377143,12.4513829 5.72434286,12.4513829 C4.56162462,12.4513829 3.42671797,12.0756536 2.4971713,11.3881241 L2.26916571,11.2097829 L1.67744,10.7207314 C0.678097143,9.89453143 0.0782096429,8.70142072 0.00712738839,7.41584405 L0,7.15757714 L0,1.91396571 C0,1.28749714 0.307108571,0.699977143 0.821211429,0.342674286 C1.08970667,0.155855238 1.39693207,0.0424330159 1.71918392,0.00981502646 L1.91414857,3.41060513e-13 L2.08437429,0.00752857143 C2.25365143,0.0225714286 2.41981714,0.0601142857 2.58048,0.119771429 C3.58930286,0.494537143 4.64713143,0.684525714 5.72434286,0.684525714 C6.80155429,0.684525714 7.8592,0.494537143 8.86811429,0.119862857 C9.08196571,0.04032 9.30633143,3.41060513e-13 9.53453714,3.41060513e-13 Z" id="Combined-Shape" fill="aliceblue"></path>
                        <path d="M5.72432457,8.83776914 C4.62928457,8.83776914 3.60464457,8.31479771 3.05040457,7.47301486 C2.88373029,7.220032 2.95376457,6.87982629 3.20683886,6.71324343 C3.45991314,6.54638629 3.80011886,6.61669486 3.96661029,6.86967771 C4.32053029,7.406912 4.99399314,7.74062629 5.72432457,7.74062629 C6.454656,7.74062629 7.12811886,7.406912 7.48203886,6.86967771 C7.64853029,6.616512 7.988736,6.54638629 8.24181029,6.71324343 C8.49488457,6.87982629 8.56491886,7.220032 8.39824457,7.47301486 C7.84400457,8.31479771 6.81936457,8.83776914 5.72432457,8.83776914" id="Fill-10" fill="#000000"></path>
                    </g>
                </g>
             </g>
        </g>
    </g>
</svg>