<?xml version="1.0" encoding="UTF-8"?>
<svg width="30px" height="30px" viewBox="0 0 20 20" version="1.1" xmlns="http://www.w3.org/2000/svg" xmlns:xlink="http://www.w3.org/1999/xlink">
    <title>icon-sprite-menu@1x</title>
    <g id="MWeb-/-Empty-&amp;-Error-States" stroke="none" stroke-width="1" fill="none" fill-rule="evenodd">
        <g id="[MVP][Full-W]Icons" transform="translate(-298.000000, -147.000000)">
            <g id="icon-sprite-menu" transform="translate(298.000000, 147.000000)">
                <g id="Languages-/-Filled" transform="translate(-1, -1)">
                    <polygon id="Path" points="0 0 24 0 24 24 0 24"></polygon>
                    <path d="M13.724664,13.1821437 L14.5586757,11.1717231 L14.8206269,11.1717231 L15.6545473,13.1821437 L13.724664,13.1821437 Z M18.9054965,16.8657865 C18.9054965,17.4353843 18.4420654,17.8988154 17.8723763,17.8988154 L12.5472518,17.8988154 L12.5472518,16.5570453 L12.5472518,15.9340904 C12.5889341,15.8883949 12.6240495,15.8353114 12.6491318,15.7749313 L13.2706274,14.2766472 L16.1085839,14.2766472 L16.7300794,15.7749313 C16.8174574,15.985532 17.0211262,16.1126769 17.2358313,16.1126769 C17.3056971,16.1126769 17.3767487,16.0990867 17.4452463,16.0707209 C17.7244359,15.9548859 17.8568709,15.6347437 17.7410359,15.3555541 L16.9792615,13.5190683 C16.978623,13.5175177 16.9779846,13.5159672 16.9773461,13.5145079 L15.6914869,10.4147826 C15.6067539,10.2104753 15.4072807,10.0772195 15.1860086,10.0772195 L14.1932026,10.0772195 C13.9719305,10.0772195 13.7724573,10.2104753 13.6877245,10.4147826 L12.5472518,13.1640843 L12.5472518,11.1688955 C11.4345065,10.9264631 10.6010421,11.2543581 10.1432659,11.5257038 C10.2954931,11.7991472 10.3784018,12.1060642 10.3784018,12.4205515 C10.3784018,13.5126837 9.50991323,14.3362064 8.35813067,14.3362064 C7.19704485,14.3362064 6.32253651,13.6020681 6.01881178,12.3723022 C5.94639213,12.0788841 6.12552587,11.7822736 6.41894403,11.7097627 C6.71199736,11.6374343 7.00897265,11.8163856 7.08148351,12.109895 C7.26691065,12.8609981 7.69641208,13.2417029 8.35813067,13.2417029 C8.91185826,13.2417029 9.28389825,12.9117101 9.28389825,12.4205515 C9.28389825,12.198641 9.18493689,11.9904117 9.00516469,11.8341713 C8.83113863,11.6828562 8.60129288,11.5994003 8.35813067,11.5994003 C8.05595649,11.5994003 7.81087891,11.3544139 7.81087891,11.0521486 C7.81087891,10.7499744 8.05595649,10.5048968 8.35813067,10.5048968 C8.86853416,10.5048968 9.28389825,10.1365051 9.28389825,9.68374549 C9.28389825,9.23098585 8.86853416,8.86259421 8.35813067,8.86259421 C8.10329377,8.86259421 7.86569529,8.95298195 7.68911539,9.11706627 C7.64825392,9.15500906 7.61131443,9.19660019 7.57930021,9.24056275 C7.40135217,9.48491067 7.05913739,9.53881497 6.81478947,9.36104936 C6.57044157,9.18319253 6.51644606,8.84097776 6.69421167,8.59662984 C6.76763462,8.49566189 6.85172897,8.40107854 6.94412331,8.31525122 C7.32382483,7.96236504 7.82601954,7.76809066 8.35813067,7.76809066 C9.47206166,7.76809066 10.3784018,8.62736715 10.3784018,9.68374549 C10.3784018,9.88212423 10.3462963,10.0736624 10.2870107,10.2538906 C10.8720229,10.037635 11.6366248,9.89981874 12.5472518,10.0533229 L12.5472518,7.98352544 L17.8723763,7.98352544 C18.4420654,7.98352544 18.9054965,8.44695648 18.9054965,9.01655437 L18.9054965,16.8657865 Z M17.8723763,6.8890219 L12.5472518,6.8890219 L12.5472518,5.54725177 C12.5472518,5.24507759 12.3021742,5 12,5 L6.12762367,5 C4.95440709,5 4,5.95440709 4,7.12753247 L4,14.9767646 C4,16.1498899 4.95440709,17.104297 6.12762367,17.104297 L11.4527482,17.104297 L11.4527482,18.4460672 C11.4527482,18.7482414 11.6977346,18.993319 12,18.993319 L17.8723763,18.993319 C19.0455017,18.993319 20,18.0389119 20,16.8657865 L20,9.01655437 C20,7.84342898 19.0455017,6.8890219 17.8723763,6.8890219 L17.8723763,6.8890219 Z" id="Fill-1" fill="aliceblue" fill-rule="nonzero"></path>
                </g>
                  </g>
        </g>
    </g>
</svg>